<svg width="64" height="64" viewBox="0 0 64 64" fill="none" xmlns="http://www.w3.org/2000/svg">
<path d="M57.3099 20.88H54.7999L40.1799 6.23001C39.9133 5.96277 39.5967 5.75066 39.2481 5.60578C38.8996 5.46089 38.5259 5.38609 38.1484 5.38562C37.771 5.38516 37.3971 5.45905 37.0482 5.60307C36.6993 5.74709 36.3821 5.95843 36.1149 6.22501C35.8477 6.49159 35.6355 6.8082 35.4907 7.15676C35.3458 7.50532 35.271 7.87901 35.2705 8.25648C35.2696 9.01881 35.5715 9.7503 36.1099 10.29L46.6999 20.88H17.2999L27.8899 10.29C28.1565 10.0228 28.3678 9.70564 28.5118 9.35673C28.6559 9.00781 28.7297 8.63395 28.7293 8.25648C28.7288 7.87901 28.654 7.50532 28.5091 7.15676C28.3642 6.8082 28.1521 6.49159 27.8849 6.22501C27.6176 5.95843 27.3005 5.74709 26.9516 5.60307C26.6027 5.45905 26.2288 5.38516 25.8514 5.38562C25.4739 5.38609 25.1002 5.46089 24.7516 5.60578C24.4031 5.75066 24.0865 5.96277 23.8199 6.23001L9.19989 20.88H6.68989C6.18982 20.854 5.68968 20.9299 5.21992 21.1034C4.75016 21.2768 4.32062 21.544 3.95744 21.8888C3.59426 22.2335 3.30505 22.6486 3.10741 23.1087C2.90978 23.5688 2.80786 24.0643 2.80786 24.565C2.80786 25.0658 2.90978 25.5613 3.10741 26.0214C3.30505 26.4815 3.59426 26.8965 3.95744 27.2413C4.32062 27.586 4.75016 27.8532 5.21992 28.0267C5.68968 28.2001 6.18982 28.2761 6.68989 28.25H6.74989L12.0499 54.6C12.2033 55.6693 12.7226 56.6523 13.5194 57.3817C14.3162 58.111 15.3413 58.5416 16.4199 58.6H47.5799C48.6585 58.5416 49.6835 58.111 50.4804 57.3817C51.2772 56.6523 51.7965 55.6693 51.9499 54.6L57.2499 28.25H57.3099C57.7936 28.2539 58.2731 28.1603 58.7198 27.9747C59.1666 27.7892 59.5713 27.5155 59.9099 27.17C60.4271 26.6559 60.7799 25.9997 60.9235 25.2847C61.0672 24.5697 60.9951 23.8282 60.7165 23.1542C60.4379 22.4803 59.9654 21.9043 59.3589 21.4994C58.7523 21.0944 58.0392 20.8789 57.3099 20.88V20.88ZM49.9999 54.2C49.935 54.818 49.6605 55.3951 49.2221 55.8354C48.7836 56.2757 48.2076 56.5526 47.5899 56.62H16.4199C15.8004 56.5547 15.2221 56.2788 14.7816 55.8383C14.3411 55.3978 14.0652 54.8195 13.9999 54.2L8.78989 28.25H55.2099L49.9999 54.2ZM37.5299 7.64001C37.6947 7.47635 37.9176 7.38451 38.1499 7.38451C38.3822 7.38451 38.605 7.47635 38.7699 7.64001L53.2399 22.11C53.4035 22.2749 53.4954 22.4977 53.4954 22.73C53.4954 22.9623 53.4035 23.1852 53.2399 23.35C53.0726 23.509 52.8507 23.5976 52.6199 23.5976C52.3891 23.5976 52.1672 23.509 51.9999 23.35L37.5299 8.88001C37.3662 8.71517 37.2744 8.4923 37.2744 8.26001C37.2744 8.02772 37.3662 7.80486 37.5299 7.64001V7.64001ZM10.7599 22.11L25.2299 7.64001C25.3985 7.49796 25.6142 7.42434 25.8344 7.43372C26.0547 7.4431 26.2634 7.5348 26.4192 7.69067C26.5751 7.84654 26.6668 8.05524 26.6762 8.27548C26.6856 8.49571 26.6119 8.71145 26.4699 8.88001L11.9999 23.35C11.8326 23.509 11.6107 23.5976 11.3799 23.5976C11.1491 23.5976 10.9272 23.509 10.7599 23.35C10.5962 23.1852 10.5044 22.9623 10.5044 22.73C10.5044 22.4977 10.5962 22.2749 10.7599 22.11V22.11ZM58.4999 25.76C58.3438 25.9163 58.1583 26.0401 57.954 26.1242C57.7497 26.2084 57.5308 26.2511 57.3099 26.25H6.68989C6.35504 26.25 6.02773 26.1505 5.74951 25.9642C5.47128 25.7779 5.25468 25.5131 5.12718 25.2035C4.99969 24.8938 4.96705 24.5533 5.03341 24.2251C5.09976 23.8969 5.26212 23.5958 5.49989 23.36C5.65647 23.205 5.84233 23.0828 6.04664 23.0004C6.25094 22.918 6.46961 22.8771 6.68989 22.88H8.51989C8.55688 23.5872 8.85223 24.2562 9.34989 24.76C9.61097 25.0256 9.92222 25.2366 10.2656 25.3808C10.6089 25.525 10.9775 25.5995 11.3499 25.6C12.1012 25.5946 12.82 25.2927 13.3499 24.76L15.2299 22.88H48.6999L50.5799 24.76C51.1098 25.2927 51.8286 25.5946 52.5799 25.6C52.9523 25.5995 53.3209 25.525 53.6642 25.3808C54.0076 25.2366 54.3188 25.0256 54.5799 24.76C55.0775 24.2562 55.3729 23.5872 55.4099 22.88H57.2399C57.4668 22.8706 57.6933 22.907 57.9058 22.9871C58.1183 23.0672 58.3125 23.1893 58.4768 23.3461C58.6411 23.5029 58.7721 23.6912 58.862 23.8998C58.9518 24.1084 58.9987 24.3329 58.9999 24.56C58.9977 25.0102 58.818 25.4414 58.4999 25.76V25.76Z" fill="#ded418" id="id_107"></path>
<path d="M19.0698 49.37C19.335 49.37 19.5894 49.2646 19.7769 49.0771C19.9645 48.8896 20.0698 48.6352 20.0698 48.37V35.3C20.0698 35.0348 19.9645 34.7804 19.7769 34.5929C19.5894 34.4053 19.335 34.3 19.0698 34.3C18.8046 34.3 18.5503 34.4053 18.3627 34.5929C18.1752 34.7804 18.0698 35.0348 18.0698 35.3V48.37C18.0698 48.6352 18.1752 48.8896 18.3627 49.0771C18.5503 49.2646 18.8046 49.37 19.0698 49.37Z" fill="#bdb51c" id="id_108"></path>
<path d="M25.5398 49.37C25.805 49.37 26.0594 49.2646 26.2469 49.0771C26.4344 48.8896 26.5398 48.6352 26.5398 48.37V35.3C26.5398 35.0348 26.4344 34.7804 26.2469 34.5929C26.0594 34.4053 25.805 34.3 25.5398 34.3C25.2746 34.3 25.0202 34.4053 24.8327 34.5929C24.6452 34.7804 24.5398 35.0348 24.5398 35.3V48.37C24.5398 48.6352 24.6452 48.8896 24.8327 49.0771C25.0202 49.2646 25.2746 49.37 25.5398 49.37Z" fill="#b8b014" id="id_109"></path>
<path d="M32 49.37C32.2652 49.37 32.5196 49.2646 32.7071 49.0771C32.8946 48.8896 33 48.6352 33 48.37V35.3C33 35.0348 32.8946 34.7804 32.7071 34.5929C32.5196 34.4053 32.2652 34.3 32 34.3C31.7348 34.3 31.4804 34.4053 31.2929 34.5929C31.1054 34.7804 31 35.0348 31 35.3V48.37C31 48.6352 31.1054 48.8896 31.2929 49.0771C31.4804 49.2646 31.7348 49.37 32 49.37Z" fill="#b5ad16" id="id_110"></path>
<path d="M38.46 49.37C38.7252 49.37 38.9795 49.2646 39.1671 49.0771C39.3546 48.8896 39.46 48.6352 39.46 48.37V35.3C39.46 35.0348 39.3546 34.7804 39.1671 34.5929C38.9795 34.4053 38.7252 34.3 38.46 34.3C38.1947 34.3 37.9404 34.4053 37.7529 34.5929C37.5653 34.7804 37.46 35.0348 37.46 35.3V48.37C37.46 48.6352 37.5653 48.8896 37.7529 49.0771C37.9404 49.2646 38.1947 49.37 38.46 49.37Z" fill="#b3ab12" id="id_111"></path>
<path d="M44.9299 49.37C45.1951 49.37 45.4495 49.2646 45.637 49.0771C45.8246 48.8896 45.9299 48.6352 45.9299 48.37V35.3C45.9299 35.0348 45.8246 34.7804 45.637 34.5929C45.4495 34.4053 45.1951 34.3 44.9299 34.3C44.6647 34.3 44.4104 34.4053 44.2228 34.5929C44.0353 34.7804 43.9299 35.0348 43.9299 35.3V48.37C43.9299 48.6352 44.0353 48.8896 44.2228 49.0771C44.4104 49.2646 44.6647 49.37 44.9299 49.37Z" fill="#a8a114" id="id_112"></path>
</svg>